<mxfile host="app.diagrams.net" agent="Mozilla/5.0 (Macintosh; Intel Mac OS X 10.15; rv:137.0) Gecko/20100101 Firefox/137.0" version="26.2.14">
  <diagram name="第 1 页" id="_Qgpu_qkRSSnFmR4LoWz">
    <mxGraphModel>
      <root>
        <mxCell id="0" />
        <mxCell id="1" parent="0" />
        <mxCell id="2" value="JVM" style="whiteSpace=wrap;strokeWidth=2;" vertex="1" parent="1">
          <mxGeometry x="1730" y="8" width="88" height="54" as="geometry" />
        </mxCell>
        <mxCell id="3" value="Java Virtual Machine" style="whiteSpace=wrap;strokeWidth=2;" vertex="1" parent="1">
          <mxGeometry x="1000" y="112" width="208" height="54" as="geometry" />
        </mxCell>
        <mxCell id="4" value="Bytecode Execution" style="whiteSpace=wrap;strokeWidth=2;" vertex="1" parent="1">
          <mxGeometry x="1530" y="112" width="201" height="54" as="geometry" />
        </mxCell>
        <mxCell id="5" value="Platform Independence" style="whiteSpace=wrap;strokeWidth=2;" vertex="1" parent="1">
          <mxGeometry x="1781" y="112" width="228" height="54" as="geometry" />
        </mxCell>
        <mxCell id="6" value="Garbage Collection" style="whiteSpace=wrap;strokeWidth=2;" vertex="1" parent="1">
          <mxGeometry x="2189" y="112" width="197" height="54" as="geometry" />
        </mxCell>
        <mxCell id="7" value="Just-In-Time Compilation" style="whiteSpace=wrap;strokeWidth=2;" vertex="1" parent="1">
          <mxGeometry x="2643" y="112" width="240" height="54" as="geometry" />
        </mxCell>
        <mxCell id="8" value="Class Loader" style="whiteSpace=wrap;strokeWidth=2;" vertex="1" parent="1">
          <mxGeometry x="181" y="228" width="149" height="54" as="geometry" />
        </mxCell>
        <mxCell id="9" value="Execution Engine" style="whiteSpace=wrap;strokeWidth=2;" vertex="1" parent="1">
          <mxGeometry x="916" y="228" width="182" height="54" as="geometry" />
        </mxCell>
        <mxCell id="10" value="Runtime Data Area" style="whiteSpace=wrap;strokeWidth=2;" vertex="1" parent="1">
          <mxGeometry x="1652" y="228" width="195" height="54" as="geometry" />
        </mxCell>
        <mxCell id="11" value="Bootstrap Class Loader" style="whiteSpace=wrap;strokeWidth=2;" vertex="1" parent="1">
          <mxGeometry x="8" y="344" width="223" height="54" as="geometry" />
        </mxCell>
        <mxCell id="12" value="Extension Class Loader" style="whiteSpace=wrap;strokeWidth=2;" vertex="1" parent="1">
          <mxGeometry x="281" y="344" width="223" height="54" as="geometry" />
        </mxCell>
        <mxCell id="13" value="Application Class Loader" style="whiteSpace=wrap;strokeWidth=2;" vertex="1" parent="1">
          <mxGeometry x="554" y="344" width="235" height="54" as="geometry" />
        </mxCell>
        <mxCell id="14" value="Interpreter" style="whiteSpace=wrap;strokeWidth=2;" vertex="1" parent="1">
          <mxGeometry x="840" y="344" width="140" height="54" as="geometry" />
        </mxCell>
        <mxCell id="15" value="JIT Compiler" style="whiteSpace=wrap;strokeWidth=2;" vertex="1" parent="1">
          <mxGeometry x="1029" y="344" width="151" height="54" as="geometry" />
        </mxCell>
        <mxCell id="16" value="Native Method Interface" style="whiteSpace=wrap;strokeWidth=2;" vertex="1" parent="1">
          <mxGeometry x="1230" y="344" width="234" height="54" as="geometry" />
        </mxCell>
        <mxCell id="17" value="Method Area" style="whiteSpace=wrap;strokeWidth=2;" vertex="1" parent="1">
          <mxGeometry x="1514" y="344" width="150" height="54" as="geometry" />
        </mxCell>
        <mxCell id="18" value="Heap" style="whiteSpace=wrap;strokeWidth=2;" vertex="1" parent="1">
          <mxGeometry x="1714" y="344" width="97" height="54" as="geometry" />
        </mxCell>
        <mxCell id="19" value="Stack" style="whiteSpace=wrap;strokeWidth=2;" vertex="1" parent="1">
          <mxGeometry x="1861" y="344" width="98" height="54" as="geometry" />
        </mxCell>
        <mxCell id="20" value="PC Registers" style="whiteSpace=wrap;strokeWidth=2;" vertex="1" parent="1">
          <mxGeometry x="2009" y="344" width="148" height="54" as="geometry" />
        </mxCell>
        <mxCell id="21" value="Natural Memory" style="whiteSpace=wrap;strokeWidth=2;" vertex="1" parent="1">
          <mxGeometry x="2207" y="344" width="174" height="54" as="geometry" />
        </mxCell>
        <mxCell id="22" value="Automatic Memory Management" style="whiteSpace=wrap;strokeWidth=2;" vertex="1" parent="1">
          <mxGeometry x="1897" y="216" width="260" height="78" as="geometry" />
        </mxCell>
        <mxCell id="23" value="Memory Leaks" style="whiteSpace=wrap;strokeWidth=2;" vertex="1" parent="1">
          <mxGeometry x="2207" y="228" width="161" height="54" as="geometry" />
        </mxCell>
        <mxCell id="24" value="Optimization Techniques" style="whiteSpace=wrap;strokeWidth=2;" vertex="1" parent="1">
          <mxGeometry x="2417" y="228" width="236" height="54" as="geometry" />
        </mxCell>
        <mxCell id="25" value="Profiling" style="whiteSpace=wrap;strokeWidth=2;" vertex="1" parent="1">
          <mxGeometry x="2704" y="228" width="120" height="54" as="geometry" />
        </mxCell>
        <mxCell id="26" value="" style="curved=1;startArrow=none;endArrow=block;exitX=0;exitY=0.56;entryX=0.5;entryY=0;" edge="1" parent="1" source="2" target="3">
          <mxGeometry relative="1" as="geometry">
            <Array as="points">
              <mxPoint x="1105" y="87" />
            </Array>
          </mxGeometry>
        </mxCell>
        <mxCell id="27" value="" style="curved=1;startArrow=none;endArrow=block;exitX=0;exitY=0.8;entryX=0.5;entryY=0;" edge="1" parent="1" source="2" target="4">
          <mxGeometry relative="1" as="geometry">
            <Array as="points">
              <mxPoint x="1630" y="87" />
            </Array>
          </mxGeometry>
        </mxCell>
        <mxCell id="28" value="" style="curved=1;startArrow=none;endArrow=block;exitX=1.01;exitY=0.85;entryX=0.5;entryY=0;" edge="1" parent="1" source="2" target="5">
          <mxGeometry relative="1" as="geometry">
            <Array as="points">
              <mxPoint x="1895" y="87" />
            </Array>
          </mxGeometry>
        </mxCell>
        <mxCell id="29" value="" style="curved=1;startArrow=none;endArrow=block;exitX=1.01;exitY=0.58;entryX=0.5;entryY=0;" edge="1" parent="1" source="2" target="6">
          <mxGeometry relative="1" as="geometry">
            <Array as="points">
              <mxPoint x="2287" y="87" />
            </Array>
          </mxGeometry>
        </mxCell>
        <mxCell id="30" value="" style="curved=1;startArrow=none;endArrow=block;exitX=1.01;exitY=0.54;entryX=0.5;entryY=0;" edge="1" parent="1" source="2" target="7">
          <mxGeometry relative="1" as="geometry">
            <Array as="points">
              <mxPoint x="2764" y="87" />
            </Array>
          </mxGeometry>
        </mxCell>
        <mxCell id="31" value="" style="curved=1;startArrow=none;endArrow=block;exitX=0;exitY=0.62;entryX=0.5;entryY=0;" edge="1" parent="1" source="3" target="8">
          <mxGeometry relative="1" as="geometry">
            <Array as="points">
              <mxPoint x="256" y="191" />
            </Array>
          </mxGeometry>
        </mxCell>
        <mxCell id="32" value="" style="curved=1;startArrow=none;endArrow=block;exitX=0.26;exitY=1;entryX=0.5;entryY=0;" edge="1" parent="1" source="3" target="9">
          <mxGeometry relative="1" as="geometry">
            <Array as="points">
              <mxPoint x="1007" y="191" />
            </Array>
          </mxGeometry>
        </mxCell>
        <mxCell id="33" value="" style="curved=1;startArrow=none;endArrow=block;exitX=1;exitY=0.66;entryX=0.5;entryY=0;" edge="1" parent="1" source="3" target="10">
          <mxGeometry relative="1" as="geometry">
            <Array as="points">
              <mxPoint x="1749" y="191" />
            </Array>
          </mxGeometry>
        </mxCell>
        <mxCell id="34" value="" style="curved=1;startArrow=none;endArrow=block;exitX=0.12;exitY=1;entryX=0.5;entryY=0;" edge="1" parent="1" source="8" target="11">
          <mxGeometry relative="1" as="geometry">
            <Array as="points">
              <mxPoint x="120" y="319" />
            </Array>
          </mxGeometry>
        </mxCell>
        <mxCell id="35" value="" style="curved=1;startArrow=none;endArrow=block;exitX=0.89;exitY=1;entryX=0.5;entryY=0;" edge="1" parent="1" source="8" target="12">
          <mxGeometry relative="1" as="geometry">
            <Array as="points">
              <mxPoint x="393" y="319" />
            </Array>
          </mxGeometry>
        </mxCell>
        <mxCell id="36" value="" style="curved=1;startArrow=none;endArrow=block;exitX=1.01;exitY=0.71;entryX=0.5;entryY=0;" edge="1" parent="1" source="8" target="13">
          <mxGeometry relative="1" as="geometry">
            <Array as="points">
              <mxPoint x="672" y="319" />
            </Array>
          </mxGeometry>
        </mxCell>
        <mxCell id="37" value="" style="curved=1;startArrow=none;endArrow=block;exitX=0.27;exitY=1;entryX=0.5;entryY=0;" edge="1" parent="1" source="9" target="14">
          <mxGeometry relative="1" as="geometry">
            <Array as="points">
              <mxPoint x="909" y="319" />
            </Array>
          </mxGeometry>
        </mxCell>
        <mxCell id="38" value="" style="curved=1;startArrow=none;endArrow=block;exitX=0.73;exitY=1;entryX=0.5;entryY=0;" edge="1" parent="1" source="9" target="15">
          <mxGeometry relative="1" as="geometry">
            <Array as="points">
              <mxPoint x="1105" y="319" />
            </Array>
          </mxGeometry>
        </mxCell>
        <mxCell id="39" value="" style="curved=1;startArrow=none;endArrow=block;exitX=1;exitY=0.82;entryX=0.5;entryY=0;" edge="1" parent="1" source="9" target="16">
          <mxGeometry relative="1" as="geometry">
            <Array as="points">
              <mxPoint x="1347" y="319" />
            </Array>
          </mxGeometry>
        </mxCell>
        <mxCell id="40" value="" style="curved=1;startArrow=none;endArrow=block;exitX=0.15;exitY=1;entryX=0.5;entryY=0;" edge="1" parent="1" source="10" target="17">
          <mxGeometry relative="1" as="geometry">
            <Array as="points">
              <mxPoint x="1589" y="319" />
            </Array>
          </mxGeometry>
        </mxCell>
        <mxCell id="41" value="" style="curved=1;startArrow=none;endArrow=block;exitX=0.53;exitY=1;entryX=0.5;entryY=0;" edge="1" parent="1" source="10" target="18">
          <mxGeometry relative="1" as="geometry">
            <Array as="points">
              <mxPoint x="1762" y="319" />
            </Array>
          </mxGeometry>
        </mxCell>
        <mxCell id="42" value="" style="curved=1;startArrow=none;endArrow=block;exitX=0.85;exitY=1;entryX=0.5;entryY=0;" edge="1" parent="1" source="10" target="19">
          <mxGeometry relative="1" as="geometry">
            <Array as="points">
              <mxPoint x="1910" y="319" />
            </Array>
          </mxGeometry>
        </mxCell>
        <mxCell id="43" value="" style="curved=1;startArrow=none;endArrow=block;exitX=1;exitY=0.85;entryX=0.5;entryY=0;" edge="1" parent="1" source="10" target="20">
          <mxGeometry relative="1" as="geometry">
            <Array as="points">
              <mxPoint x="2083" y="319" />
            </Array>
          </mxGeometry>
        </mxCell>
        <mxCell id="44" value="" style="curved=1;startArrow=none;endArrow=block;exitX=1;exitY=0.71;entryX=0.5;entryY=0;" edge="1" parent="1" source="10" target="21">
          <mxGeometry relative="1" as="geometry">
            <Array as="points">
              <mxPoint x="2294" y="319" />
            </Array>
          </mxGeometry>
        </mxCell>
        <mxCell id="45" value="" style="curved=1;startArrow=none;endArrow=block;exitX=0;exitY=0.86;entryX=0.5;entryY=0;" edge="1" parent="1" source="6" target="22">
          <mxGeometry relative="1" as="geometry">
            <Array as="points">
              <mxPoint x="2027" y="191" />
            </Array>
          </mxGeometry>
        </mxCell>
        <mxCell id="46" value="" style="curved=1;startArrow=none;endArrow=block;exitX=0.5;exitY=1;entryX=0.5;entryY=0;" edge="1" parent="1" source="6" target="23">
          <mxGeometry relative="1" as="geometry">
            <Array as="points" />
          </mxGeometry>
        </mxCell>
        <mxCell id="47" value="" style="curved=1;startArrow=none;endArrow=block;exitX=0.01;exitY=1;entryX=0.5;entryY=0;" edge="1" parent="1" source="7" target="24">
          <mxGeometry relative="1" as="geometry">
            <Array as="points">
              <mxPoint x="2536" y="191" />
            </Array>
          </mxGeometry>
        </mxCell>
        <mxCell id="48" value="" style="curved=1;startArrow=none;endArrow=block;exitX=0.5;exitY=1;entryX=0.5;entryY=0;" edge="1" parent="1" source="7" target="25">
          <mxGeometry relative="1" as="geometry">
            <Array as="points" />
          </mxGeometry>
        </mxCell>
      </root>
    </mxGraphModel>
  </diagram>
</mxfile>
